<mxfile host="app.diagrams.net" modified="2021-12-28T07:11:18.667Z" agent="5.0 (Macintosh; Intel Mac OS X 10_15_7) AppleWebKit/605.1.15 (KHTML, like Gecko) Version/15.2 Safari/605.1.15" etag="Uuw7mvPW8KUO18myiAPw" version="16.1.0" type="github">
  <diagram id="hX-ZhJ2K5Q5VnK9N8v0G" name="Page-1">
    <mxGraphModel dx="976" dy="711" grid="1" gridSize="10" guides="1" tooltips="1" connect="1" arrows="1" fold="1" page="1" pageScale="1" pageWidth="850" pageHeight="1100" math="0" shadow="0">
      <root>
        <mxCell id="0" />
        <mxCell id="1" parent="0" />
        <mxCell id="6HOCwGl0xgq-ZaHQDZ0h-1" value="Models" style="ellipse;whiteSpace=wrap;html=1;" parent="1" vertex="1">
          <mxGeometry x="355" y="50" width="120" height="80" as="geometry" />
        </mxCell>
        <mxCell id="6HOCwGl0xgq-ZaHQDZ0h-16" style="edgeStyle=orthogonalEdgeStyle;rounded=0;orthogonalLoop=1;jettySize=auto;html=1;exitX=0.5;exitY=1;exitDx=0;exitDy=0;entryX=0.5;entryY=0;entryDx=0;entryDy=0;" parent="1" source="6HOCwGl0xgq-ZaHQDZ0h-1" target="6HOCwGl0xgq-ZaHQDZ0h-6" edge="1">
          <mxGeometry relative="1" as="geometry">
            <mxPoint x="415" y="250" as="sourcePoint" />
          </mxGeometry>
        </mxCell>
        <mxCell id="6HOCwGl0xgq-ZaHQDZ0h-11" style="edgeStyle=orthogonalEdgeStyle;rounded=0;orthogonalLoop=1;jettySize=auto;html=1;exitX=0.5;exitY=1;exitDx=0;exitDy=0;" parent="1" source="6HOCwGl0xgq-ZaHQDZ0h-6" target="6HOCwGl0xgq-ZaHQDZ0h-7" edge="1">
          <mxGeometry relative="1" as="geometry" />
        </mxCell>
        <mxCell id="6HOCwGl0xgq-ZaHQDZ0h-6" value="generate a population of N inputs&amp;nbsp;" style="rounded=0;whiteSpace=wrap;html=1;" parent="1" vertex="1">
          <mxGeometry x="354.94" y="640" width="120" height="60" as="geometry" />
        </mxCell>
        <mxCell id="6HOCwGl0xgq-ZaHQDZ0h-12" style="edgeStyle=orthogonalEdgeStyle;rounded=0;orthogonalLoop=1;jettySize=auto;html=1;exitX=0.5;exitY=1;exitDx=0;exitDy=0;entryX=0.5;entryY=0;entryDx=0;entryDy=0;" parent="1" source="6HOCwGl0xgq-ZaHQDZ0h-7" target="6HOCwGl0xgq-ZaHQDZ0h-8" edge="1">
          <mxGeometry relative="1" as="geometry" />
        </mxCell>
        <mxCell id="6HOCwGl0xgq-ZaHQDZ0h-7" value="Calc fitness function for each input" style="rounded=0;whiteSpace=wrap;html=1;" parent="1" vertex="1">
          <mxGeometry x="354.94" y="770" width="120" height="60" as="geometry" />
        </mxCell>
        <mxCell id="6HOCwGl0xgq-ZaHQDZ0h-13" style="edgeStyle=orthogonalEdgeStyle;rounded=0;orthogonalLoop=1;jettySize=auto;html=1;exitX=0.5;exitY=1;exitDx=0;exitDy=0;entryX=0.5;entryY=0;entryDx=0;entryDy=0;" parent="1" source="6HOCwGl0xgq-ZaHQDZ0h-8" target="6HOCwGl0xgq-ZaHQDZ0h-9" edge="1">
          <mxGeometry relative="1" as="geometry">
            <mxPoint x="414.94" y="1000" as="targetPoint" />
          </mxGeometry>
        </mxCell>
        <mxCell id="6HOCwGl0xgq-ZaHQDZ0h-8" value="select top m inputs" style="rounded=0;whiteSpace=wrap;html=1;" parent="1" vertex="1">
          <mxGeometry x="354.94" y="890" width="120" height="60" as="geometry" />
        </mxCell>
        <mxCell id="6HOCwGl0xgq-ZaHQDZ0h-14" style="edgeStyle=orthogonalEdgeStyle;rounded=0;orthogonalLoop=1;jettySize=auto;html=1;exitX=0.5;exitY=1;exitDx=0;exitDy=0;" parent="1" source="6HOCwGl0xgq-ZaHQDZ0h-9" target="6HOCwGl0xgq-ZaHQDZ0h-10" edge="1">
          <mxGeometry relative="1" as="geometry">
            <mxPoint x="414.94" y="1100" as="sourcePoint" />
          </mxGeometry>
        </mxCell>
        <mxCell id="6HOCwGl0xgq-ZaHQDZ0h-9" value="crossover between m inputs &lt;br&gt;to make n inputs" style="rounded=0;whiteSpace=wrap;html=1;" parent="1" vertex="1">
          <mxGeometry x="341.19" y="1010" width="147.5" height="70" as="geometry" />
        </mxCell>
        <mxCell id="6HOCwGl0xgq-ZaHQDZ0h-15" style="edgeStyle=orthogonalEdgeStyle;rounded=0;orthogonalLoop=1;jettySize=auto;html=1;exitX=0.5;exitY=1;exitDx=0;exitDy=0;" parent="1" source="6HOCwGl0xgq-ZaHQDZ0h-10" edge="1">
          <mxGeometry relative="1" as="geometry">
            <mxPoint x="415.11647058823536" y="600" as="targetPoint" />
            <Array as="points">
              <mxPoint x="414.94" y="1220" />
              <mxPoint x="229.94" y="1220" />
              <mxPoint x="229.94" y="600" />
            </Array>
          </mxGeometry>
        </mxCell>
        <mxCell id="6HOCwGl0xgq-ZaHQDZ0h-10" value="mutation of each input" style="rounded=0;whiteSpace=wrap;html=1;" parent="1" vertex="1">
          <mxGeometry x="354.94" y="1130" width="120" height="60" as="geometry" />
        </mxCell>
        <mxCell id="6HOCwGl0xgq-ZaHQDZ0h-21" value="" style="endArrow=none;dashed=1;html=1;rounded=0;" parent="1" edge="1">
          <mxGeometry width="50" height="50" relative="1" as="geometry">
            <mxPoint x="150" y="540" as="sourcePoint" />
            <mxPoint x="690" y="540" as="targetPoint" />
          </mxGeometry>
        </mxCell>
        <mxCell id="6HOCwGl0xgq-ZaHQDZ0h-22" value="" style="endArrow=none;dashed=1;html=1;rounded=0;" parent="1" edge="1">
          <mxGeometry width="50" height="50" relative="1" as="geometry">
            <mxPoint x="150" y="1250" as="sourcePoint" />
            <mxPoint x="150" y="540" as="targetPoint" />
          </mxGeometry>
        </mxCell>
        <mxCell id="6HOCwGl0xgq-ZaHQDZ0h-23" value="" style="endArrow=none;dashed=1;html=1;rounded=0;" parent="1" edge="1">
          <mxGeometry width="50" height="50" relative="1" as="geometry">
            <mxPoint x="690" y="1250" as="sourcePoint" />
            <mxPoint x="690" y="540" as="targetPoint" />
          </mxGeometry>
        </mxCell>
        <mxCell id="6HOCwGl0xgq-ZaHQDZ0h-24" value="" style="endArrow=none;dashed=1;html=1;rounded=0;" parent="1" edge="1">
          <mxGeometry width="50" height="50" relative="1" as="geometry">
            <mxPoint x="144.71" y="1250" as="sourcePoint" />
            <mxPoint x="690" y="1250" as="targetPoint" />
          </mxGeometry>
        </mxCell>
        <mxCell id="fLmXIGUeT9Dw2lGHP_HX-4" style="edgeStyle=orthogonalEdgeStyle;rounded=0;orthogonalLoop=1;jettySize=auto;html=1;" edge="1" parent="1" source="fLmXIGUeT9Dw2lGHP_HX-1" target="fLmXIGUeT9Dw2lGHP_HX-2">
          <mxGeometry relative="1" as="geometry" />
        </mxCell>
        <mxCell id="fLmXIGUeT9Dw2lGHP_HX-1" value="Mutation metric:&lt;br&gt;change of coverage" style="rounded=0;whiteSpace=wrap;html=1;" vertex="1" parent="1">
          <mxGeometry x="190" y="200" width="120" height="50" as="geometry" />
        </mxCell>
        <mxCell id="fLmXIGUeT9Dw2lGHP_HX-2" value="For tuning hyperparameter for each function" style="rounded=1;whiteSpace=wrap;html=1;" vertex="1" parent="1">
          <mxGeometry x="170" y="330" width="120" height="60" as="geometry" />
        </mxCell>
      </root>
    </mxGraphModel>
  </diagram>
</mxfile>
